<?xml version="1.0" encoding="UTF-8"?>
<svg width="50px" height="40px" viewBox="0 0 50 40" version="1.1" xmlns="http://www.w3.org/2000/svg" xmlns:xlink="http://www.w3.org/1999/xlink">
    <!-- Generator: Sketch 53.2 (72643) - https://sketchapp.com -->
    <title>Group 19</title>
    <desc>Created with Sketch.</desc>
    <defs>
        <polygon id="path-1" points="0.000232258065 0.384075 24 0.384075 24 2.652075 0.000232258065 2.652075"></polygon>
        <polygon id="path-3" points="0.000232258065 0.603825 24 0.603825 24 2.871825 0.000232258065 2.871825"></polygon>
        <polygon id="path-5" points="0.000232258065 0.073575 24 0.073575 24 2.341575 0.000232258065 2.341575"></polygon>
        <polygon id="path-7" points="0.000232258065 0.29325 24 0.29325 24 2.56125 0.000232258065 2.56125"></polygon>
        <polygon id="path-9" points="0.000232258065 0.51225 24 0.51225 24 2.78025 0.000232258065 2.78025"></polygon>
        <polygon id="path-11" points="0.000232258065 0.732 24 0.732 24 3 0.000232258065 3"></polygon>
    </defs>
    <g id="Group-19" stroke="none" stroke-width="1" fill="none" fill-rule="evenodd">
        <g transform="translate(13.000000, 8.000000)">
            <g id="Group-3">
                <mask id="mask-2" fill="white">
                    <use xlink:href="#path-1"></use>
                </mask>
                <g id="Clip-2"></g>
                <path d="M22.8296516,2.652075 L1.17003871,2.652075 C0.526683871,2.652075 0.000232258065,2.142075 0.000232258065,1.518075 C0.000232258065,0.894075 0.526683871,0.384075 1.17003871,0.384075 L22.8296516,0.384075 C23.4730065,0.384075 24.0002323,0.894075 24.0002323,1.518075 C24.0002323,2.142075 23.4730065,2.652075 22.8296516,2.652075" id="Fill-1" fill="#486896" mask="url(#mask-2)"></path>
            </g>
            <g id="Group-6" transform="translate(0.000000, 4.000000)">
                <mask id="mask-4" fill="white">
                    <use xlink:href="#path-3"></use>
                </mask>
                <g id="Clip-5"></g>
                <path d="M22.8296516,2.871825 L1.17003871,2.871825 C0.526683871,2.871825 0.000232258065,2.361075 0.000232258065,1.737825 C0.000232258065,1.113825 0.526683871,0.603825 1.17003871,0.603825 L22.8296516,0.603825 C23.4730065,0.603825 24.0002323,1.113825 24.0002323,1.737825 C24.0002323,2.361075 23.4730065,2.871825 22.8296516,2.871825" id="Fill-4" fill="#486896" mask="url(#mask-4)"></path>
            </g>
            <g id="Group-9" transform="translate(0.000000, 9.000000)">
                <mask id="mask-6" fill="white">
                    <use xlink:href="#path-5"></use>
                </mask>
                <g id="Clip-8"></g>
                <path d="M22.8296516,2.341575 L1.17003871,2.341575 C0.526683871,2.341575 0.000232258065,1.830825 0.000232258065,1.206825 C0.000232258065,0.583575 0.526683871,0.073575 1.17003871,0.073575 L22.8296516,0.073575 C23.4730065,0.073575 24.0002323,0.583575 24.0002323,1.206825 C24.0002323,1.830825 23.4730065,2.341575 22.8296516,2.341575" id="Fill-7" fill="#486896" mask="url(#mask-6)"></path>
            </g>
            <g id="Group-12" transform="translate(0.000000, 13.000000)">
                <mask id="mask-8" fill="white">
                    <use xlink:href="#path-7"></use>
                </mask>
                <g id="Clip-11"></g>
                <path d="M22.8296516,2.56125 L1.17003871,2.56125 C0.526683871,2.56125 0.000232258065,2.0505 0.000232258065,1.4265 C0.000232258065,0.8025 0.526683871,0.29325 1.17003871,0.29325 L22.8296516,0.29325 C23.4730065,0.29325 24.0002323,0.8025 24.0002323,1.4265 C24.0002323,2.0505 23.4730065,2.56125 22.8296516,2.56125" id="Fill-10" fill="#474749" mask="url(#mask-8)"></path>
            </g>
            <g id="Group-15" transform="translate(0.000000, 17.000000)">
                <mask id="mask-10" fill="white">
                    <use xlink:href="#path-9"></use>
                </mask>
                <g id="Clip-14"></g>
                <path d="M22.8296516,2.78025 L1.17003871,2.78025 C0.526683871,2.78025 0.000232258065,2.2695 0.000232258065,1.64625 C0.000232258065,1.02225 0.526683871,0.51225 1.17003871,0.51225 L22.8296516,0.51225 C23.4730065,0.51225 24.0002323,1.02225 24.0002323,1.64625 C24.0002323,2.2695 23.4730065,2.78025 22.8296516,2.78025" id="Fill-13" fill="#474749" mask="url(#mask-10)"></path>
            </g>
            <g id="Group-18" transform="translate(0.000000, 21.000000)">
                <mask id="mask-12" fill="white">
                    <use xlink:href="#path-11"></use>
                </mask>
                <g id="Clip-17"></g>
                <path d="M22.8296516,3 L1.17003871,3 C0.526683871,3 0.000232258065,2.48925 0.000232258065,1.866 C0.000232258065,1.242 0.526683871,0.732 1.17003871,0.732 L22.8296516,0.732 C23.4730065,0.732 24.0002323,1.242 24.0002323,1.866 C24.0002323,2.48925 23.4730065,3 22.8296516,3" id="Fill-16" fill="#474749" mask="url(#mask-12)"></path>
            </g>
        </g>
    </g>
</svg>